Radio-Canada-Bold-slant-12.ufo
<glyph name="quotedbl" format="1">
  <advance width="492"/>
  <unicode hex="0022"/>
  <outline>
    <contour>
      <point x="203.04072440241592" y="720.0" type="line"/>
      <point x="164.7087106262583" y="375.0" type="line"/>
      <point x="266.70871062625827" y="375.0" type="line"/>
      <point x="375.0407244024159" y="720.0" type="line"/>
    </contour>
    <contour>
      <point x="423.0407244024159" y="720.0" type="line"/>
      <point x="384.70871062625827" y="375.0" type="line"/>
      <point x="486.70871062625827" y="375.0" type="line"/>
      <point x="595.0407244024159" y="720.0" type="line"/>
    </contour>
  </outline>
</glyph>
<glyph name="quotesingle" format="1">
  <advance width="272"/>
  <unicode hex="0027"/>
  <outline>
    <contour>
      <point x="203.04072440241592" y="720.0" type="line"/>
      <point x="164.7087106262583" y="375.0" type="line"/>
      <point x="266.70871062625827" y="375.0" type="line"/>
      <point x="375.0407244024159" y="720.0" type="line"/>
    </contour>
  </outline>
</glyph>
<glyph name="parenright" format="1">
  <advance width="300"/>
  <unicode hex="0029"/>
  <outline>
    <contour>
      <point x="-91.44852952565432" y="-195.0" type="curve"/>
      <point x="-32.414479787525664" y="-256.0" type="line"/>
      <point x="132.76855196961748" y="-114.0"/>
      <point x="243.92737559014094" y="42.0"/>
      <point x="291.9651585275659" y="268.0" type="curve" smooth="yes"/>
      <point x="340.00294146499095" y="494.0"/>
      <point x="294.9492085238444" y="649.0"/>
      <point x="190.1322402809875" y="791.0" type="curve"/>
      <point x="105.16629001911616" y="730.0" type="line"/>
      <point x="173.25859763199315" y="594.0"/>
      <point x="191.28812243652004" y="453.0"/>
      <point x="151.96515852756593" y="268.0" type="curve" smooth="yes"/>
      <point x="112.64219461861184" y="83.0"/>
      <point x="34.4591628614687" y="-59.0"/>
    </contour>
  </outline>
</glyph>
<glyph name="asterisk" format="1">
  <advance width="619"/>
  <unicode hex="002A"/>
  <outline>
    <contour>
      <point x="158.08993240996074" y="485.0" type="line"/>
      <point x="323.65045275151" y="450.0" type="line"/>
      <point x="177.44321285774714" y="322.0" type="line"/>
      <point x="273.58846167746526" y="238.0" type="line"/>
      <point x="393.5347287363187" y="393.0" type="line"/>
      <point x="446.58846167746526" y="238.0" type="line"/>
      <point x="579.4432128577471" y="322.0" type="line"/>
      <point x="487.65045275151" y="450.0" type="line"/>
      <point x="667.0899324099607" y="485.0" type="line"/>
      <point x="652.7850682354137" y="620.0" type="line"/>
      <point x="476.0558826718321" y="546.0" type="line"/>
      <point x="533.0407244024159" y="720.0" type="line"/>
      <point x="392.0407244024159" y="720.0" type="line"/>
      <point x="376.0558826718321" y="546.0" type="line"/>
      <point x="230.78506823541372" y="620.0" type="line"/>
    </contour>
  </outline>
</glyph>
<glyph name="hyphen" format="1">
  <advance width="396"/>
  <unicode hex="002D"/>
  <outline>
    <contour>
      <point x="101.1247738823948" y="217.0" type="line"/>
      <point x="387.1247738823948" y="217.0" type="line"/>
      <point x="412.84411784446746" y="338.0" type="line"/>
      <point x="126.84411784446748" y="338.0" type="line"/>
    </contour>
  </outline>
</glyph>
<glyph name="period" format="1">
  <advance width="278"/>
  <unicode hex="002E"/>
  <outline>
    <contour>
      <point x="62.00452493360177" y="80.0" type="curve" smooth="yes"/>
      <point x="50.95158372676062" y="28.0"/>
      <point x="81.44932125995973" y="-12.0"/>
      <point x="136.44932125995973" y="-12.0" type="curve" smooth="yes"/>
      <point x="191.44932125995973" y="-12.0"/>
      <point x="238.95158372676062" y="28.0"/>
      <point x="250.00452493360177" y="80.0" type="curve"/>
      <point x="261.27002270211295" y="133.0"/>
      <point x="230.5597286072438" y="172.0"/>
      <point x="175.5597286072438" y="172.0" type="curve" smooth="yes"/>
      <point x="120.55972860724381" y="172.0"/>
      <point x="73.27002270211294" y="133.0"/>
    </contour>
  </outline>
</glyph>
<glyph name="slash" format="1">
  <advance width="394"/>
  <unicode hex="002F"/>
  <outline>
    <contour>
      <point x="-6.376696850100664" y="-30.0" type="line"/>
      <point x="140.62330314989933" y="-30.0" type="line"/>
      <point x="547.0407244024159" y="720.0" type="line"/>
      <point x="400.0407244024159" y="720.0" type="line"/>
    </contour>
  </outline>
</glyph>
<glyph name="two" format="1">
  <advance width="660"/>
  <unicode hex="0032"/>
  <outline>
    <contour>
      <point x="192.47115419366315" y="595.0" type="curve"/>
      <point x="254.8145930399406" y="479.0" type="line"/>
      <point x="311.3796383150916" y="524.0"/>
      <point x="369.9688917268623" y="555.0"/>
      <point x="422.9688917268623" y="555.0" type="curve"/>
      <point x="483.9688917268623" y="555.0"/>
      <point x="507.1042989450715" y="518.0"/>
      <point x="497.53925366992047" y="473.0" type="curve"/>
      <point x="488.82443464144956" y="432.0"/>
      <point x="451.89705905130864" y="390.0"/>
      <point x="369.8683259810872" y="324.0" type="curve" smooth="yes"/>
      <point x="99.31843897535232" y="105.0" type="line"/>
      <point x="146.0" y="0.0" type="line"/>
      <point x="445.18755669074494" y="222.0" type="line" smooth="yes"/>
      <point x="583.0808825427572" y="325.0"/>
      <point x="645.8100681063388" y="399.0"/>
      <point x="665.790384903321" y="493.0" type="curve"/>
      <point x="691.0846157420535" y="612.0"/>
      <point x="608.2147062923556" y="702.0"/>
      <point x="472.2147062923556" y="702.0" type="curve"/>
      <point x="369.2147062923556" y="702.0"/>
      <point x="272.4371044555345" y="656.0"/>
    </contour>
    <contour>
      <point x="77.0" y="0.0" type="line"/>
      <point x="571.0" y="0.0" type="line"/>
      <point x="600.7579186338031" y="140.0" type="line"/>
      <point x="192.7579186338031" y="140.0" type="line"/>
      <point x="99.31843897535232" y="105.0" type="line"/>
    </contour>
  </outline>
</glyph>
<glyph name="four" format="1">
  <advance width="660"/>
  <unicode hex="0034"/>
  <outline>
    <contour>
      <point x="110.97500012907489" y="221.0" type="line"/>
      <point x="167.65656115372258" y="116.0" type="line"/>
      <point x="594.6640275523152" y="690.0" type="line"/>
      <point x="464.66402755231525" y="690.0" type="line"/>
    </contour>
    <contour>
      <point x="88.65656115372256" y="116.0" type="line"/>
      <point x="636.6565611537226" y="116.0" type="line"/>
      <point x="666.4144797875257" y="256.0" type="line"/>
      <point x="164.41447978752566" y="256.0" type="line"/>
      <point x="110.97500012907489" y="221.0" type="line"/>
    </contour>
    <contour>
      <point x="361.0" y="0.0" type="line"/>
      <point x="521.0" y="0.0" type="line"/>
      <point x="667.6640275523152" y="690.0" type="line"/>
      <point x="507.66402755231525" y="690.0" type="line"/>
    </contour>
  </outline>
</glyph>
<glyph name="six" format="1">
  <advance width="660"/>
  <unicode hex="0036"/>
  <outline>
    <contour>
      <point x="133.0180997344071" y="320.0" type="curve" smooth="yes"/>
      <point x="88.38122178370243" y="110.0"/>
      <point x="178.44932125995973" y="-12.0"/>
      <point x="335.44932125995973" y="-12.0" type="curve"/>
      <point x="489.44932125995973" y="-12.0"/>
      <point x="611.4924208652919" y="87.0"/>
      <point x="640.8252263757549" y="225.0" type="curve" smooth="yes"/>
      <point x="669.520362201208" y="360.0"/>
      <point x="596.4378961898399" y="449.0"/>
      <point x="472.43789618983993" y="449.0" type="curve" smooth="yes"/>
      <point x="404.43789618983993" y="449.0"/>
      <point x="334.2109730930592" y="415.0"/>
      <point x="291.37058844788805" y="364.0" type="curve"/>
      <point x="271.39027165090596" y="270.0" type="line"/>
      <point x="310.5544119393366" y="299.0"/>
      <point x="366.0808825427572" y="325.0"/>
      <point x="408.0808825427572" y="325.0" type="curve"/>
      <point x="467.0808825427572" y="325.0"/>
      <point x="499.57862007595634" y="285.0"/>
      <point x="486.18755669074494" y="222.0" type="curve" smooth="yes"/>
      <point x="474.4969457988937" y="167.0"/>
      <point x="425.14445708541274" y="123.0"/>
      <point x="369.14445708541274" y="123.0" type="curve"/>
      <point x="304.14445708541274" y="123.0"/>
      <point x="261.897850785614" y="183.0"/>
      <point x="291.0180997344071" y="320.0" type="curve" smooth="yes"/>
      <point x="329.06572427334106" y="499.0"/>
      <point x="429.94468359024256" y="569.0"/>
      <point x="509.94468359024256" y="569.0" type="curve"/>
      <point x="545.9446835902426" y="569.0"/>
      <point x="577.6065614118723" y="558.0"/>
      <point x="606.4424211234417" y="529.0" type="curve"/>
      <point x="701.7994347705244" y="653.0" type="line"/>
      <point x="659.0263578673053" y="687.0"/>
      <point x="600.2147062923556" y="702.0"/>
      <point x="535.2147062923556" y="702.0" type="curve" smooth="yes"/>
      <point x="366.2147062923556" y="702.0"/>
      <point x="186.79490983692267" y="573.0"/>
    </contour>
  </outline>
</glyph>
<glyph name="nine" format="1">
  <advance width="660"/>
  <unicode hex="0039"/>
  <outline>
    <contour>
      <point x="165.8388011765603" y="465.0" type="curve" smooth="yes"/>
      <point x="137.1436653511073" y="330.0"/>
      <point x="210.22613136247534" y="241.0"/>
      <point x="334.2261313624753" y="241.0" type="curve" smooth="yes"/>
      <point x="402.2261313624753" y="241.0"/>
      <point x="472.45305445925607" y="275.0"/>
      <point x="515.2934391044272" y="326.0" type="curve"/>
      <point x="535.2737559014092" y="420.0" type="line"/>
      <point x="496.10961561297864" y="391.0"/>
      <point x="440.58314500955805" y="365.0"/>
      <point x="398.58314500955805" y="365.0" type="curve"/>
      <point x="339.58314500955805" y="365.0"/>
      <point x="307.08540747635897" y="405.0"/>
      <point x="320.47647086157036" y="468.0" type="curve" smooth="yes"/>
      <point x="332.1670817534216" y="523.0"/>
      <point x="381.51957046690256" y="567.0"/>
      <point x="437.51957046690256" y="567.0" type="curve"/>
      <point x="502.51957046690256" y="567.0"/>
      <point x="544.7661767667012" y="507.0"/>
      <point x="515.6459278179082" y="370.0" type="curve" smooth="yes"/>
      <point x="477.59830327897424" y="191.0"/>
      <point x="376.7193439620727" y="121.0"/>
      <point x="296.7193439620727" y="121.0" type="curve"/>
      <point x="260.7193439620727" y="121.0"/>
      <point x="229.05746614044293" y="132.0"/>
      <point x="200.22160642887357" y="161.0" type="curve"/>
      <point x="104.86459278179082" y="37.0" type="line"/>
      <point x="147.63766968501005" y="3.0"/>
      <point x="206.44932125995973" y="-12.0"/>
      <point x="271.44932125995973" y="-12.0" type="curve" smooth="yes"/>
      <point x="440.44932125995973" y="-12.0"/>
      <point x="619.8691177153926" y="117.0"/>
      <point x="673.6459278179082" y="370.0" type="curve" smooth="yes"/>
      <point x="718.2828057686129" y="580.0"/>
      <point x="628.2147062923556" y="702.0"/>
      <point x="471.2147062923556" y="702.0" type="curve"/>
      <point x="317.2147062923556" y="702.0"/>
      <point x="195.17160668702334" y="603.0"/>
    </contour>
  </outline>
</glyph>
<glyph name="less" format="1">
  <advance width="660"/>
  <unicode hex="003C"/>
  <outline>
    <contour>
      <point x="146.25033949909502" y="227.0" type="line"/>
      <point x="164.3176472410469" y="312.0" type="line"/>
      <point x="274.5302038027169" y="313.0" type="line"/>
      <point x="580.1731901556342" y="189.0" type="line"/>
      <point x="548.2897059051309" y="39.0" type="line"/>
    </contour>
    <contour>
      <point x="152.41447978752566" y="256.0" type="line"/>
      <point x="172.18224002283773" y="349.0" type="line"/>
      <point x="654.1428736168019" y="537.0" type="line"/>
      <point x="621.4091631196185" y="383.0" type="line"/>
      <point x="262.6270363491957" y="257.0" type="line"/>
    </contour>
  </outline>
</glyph>
<glyph name="question" format="1">
  <advance width="518"/>
  <unicode hex="003F"/>
  <outline>
    <contour>
      <point x="136.47115419366315" y="595.0" type="curve"/>
      <point x="200.8773758482907" y="484.0" type="line"/>
      <point x="253.5052039317918" y="534.0"/>
      <point x="295.9688917268623" y="555.0"/>
      <point x="342.9688917268623" y="555.0" type="curve"/>
      <point x="390.9688917268623" y="555.0"/>
      <point x="411.01730800010165" y="527.0"/>
      <point x="404.640611150001" y="497.0" type="curve"/>
      <point x="399.75181023159047" y="474.0"/>
      <point x="380.3751133814898" y="444.0"/>
      <point x="311.4477377913489" y="402.0" type="curve" smooth="yes"/>
      <point x="273.5589368729384" y="379.0"/>
      <point x="251.75712689949768" y="347.0"/>
      <point x="245.76696850100663" y="300.0" type="curve" smooth="yes"/>
      <point x="239.07635760915542" y="245.0" type="line"/>
      <point x="358.0763576091554" y="245.0" type="line"/>
      <point x="365.815384774246" y="272.0" type="line" smooth="yes"/>
      <point x="370.85395944597644" y="291.0"/>
      <point x="382.4674209943668" y="308.0"/>
      <point x="401.8055431727371" y="319.0" type="curve" smooth="yes"/>
      <point x="519.8970590513086" y="390.0"/>
      <point x="557.1625568198198" y="443.0"/>
      <point x="572.0415161367214" y="513.0" type="curve"/>
      <point x="595.8478510437639" y="625.0"/>
      <point x="523.2147062923556" y="702.0"/>
      <point x="394.2147062923556" y="702.0" type="curve"/>
      <point x="303.2147062923556" y="702.0"/>
      <point x="206.43710445553452" y="656.0"/>
    </contour>
    <component base="period" xOffset="108"/>
  </outline>
</glyph>
<glyph name="A" format="1">
  <advance width="656"/>
  <unicode hex="0041"/>
  <outline>
    <contour>
      <point x="0.0" y="0.0" type="line"/>
      <point x="170.0" y="0.0" type="line"/>
      <point x="456.5052039317918" y="534.0" type="line"/>
      <point x="481.66402755231525" y="690.0" type="line"/>
      <point x="407.66402755231525" y="690.0" type="line"/>
    </contour>
    <contour>
      <point x="197.907692387123" y="136.0" type="line"/>
      <point x="523.907692387123" y="136.0" type="line"/>
      <point x="550.9023757192158" y="263.0" type="line"/>
      <point x="224.90237571921583" y="263.0" type="line"/>
    </contour>
    <contour>
      <point x="422.5052039317918" y="534.0" type="line"/>
      <point x="482.0" y="0.0" type="line"/>
      <point x="656.0" y="0.0" type="line"/>
      <point x="541.6640275523152" y="690.0" type="line"/>
      <point x="459.66402755231525" y="690.0" type="line"/>
    </contour>
    <contour>
      <point x="473.66402755231525" y="690.0" type="move" name="top"/>
    </contour>
    <contour>
      <point x="328.0" y="0.0" type="move" name="bottom"/>
    </contour>
  </outline>
</glyph>
<glyph name="B" format="1">
  <advance width="654"/>
  <unicode hex="0042"/>
  <outline>
    <contour>
      <point x="85.0" y="0.0" type="line"/>
      <point x="245.0" y="0.0" type="line"/>
      <point x="391.66402755231525" y="690.0" type="line"/>
      <point x="231.66402755231528" y="690.0" type="line"/>
    </contour>
    <contour>
      <point x="159.0" y="0.0" type="line"/>
      <point x="367.0" y="0.0" type="line" smooth="yes"/>
      <point x="500.71595330739297" y="0.0"/>
      <point x="619.0272545924853" y="70.69767441860465"/>
      <point x="644.3857467173042" y="190.0" type="curve" smooth="yes"/>
      <point x="669.8410052542716" y="309.75757575757564"/>
      <point x="590.4719459279686" y="388.0"/>
      <point x="449.4719459279686" y="388.0" type="curve" smooth="yes"/>
      <point x="241.4719459279686" y="388.0" type="line"/>
      <point x="220.2162897609664" y="288.0" type="line"/>
      <point x="413.2162897609664" y="288.0" type="line" smooth="yes"/>
      <point x="466.2162897609664" y="288.0"/>
      <point x="496.6898191575458" y="262.0"/>
      <point x="485.84943451237467" y="211.0" type="curve" smooth="yes"/>
      <point x="475.00904986720354" y="160.0"/>
      <point x="433.48257926378295" y="134.0"/>
      <point x="380.48257926378295" y="134.0" type="curve" smooth="yes"/>
      <point x="187.48257926378295" y="134.0" type="line"/>
    </contour>
    <contour>
      <point x="228.71855222776725" y="328.0" type="line"/>
      <point x="411.71855222776725" y="328.0" type="line" smooth="yes"/>
      <point x="542.7185522277673" y="328.0"/>
      <point x="656.6845024896386" y="389.0"/>
      <point x="681.3410636433612" y="505.0" type="curve" smooth="yes"/>
      <point x="705.7850682354137" y="620.0"/>
      <point x="619.5589691865565" y="690.0"/>
      <point x="488.66402755231525" y="690.0" type="curve" smooth="yes"/>
      <point x="305.66402755231525" y="690.0" type="line"/>
      <point x="277.1814482885323" y="556.0" type="line"/>
      <point x="450.1814482885323" y="556.0" type="line" smooth="yes"/>
      <point x="500.1814482885323" y="556.0"/>
      <point x="528.8675342467817" y="531.0"/>
      <point x="518.8773758482907" y="484.0" type="curve" smooth="yes"/>
      <point x="508.88721744979966" y="437.0"/>
      <point x="469.5733034080491" y="412.0"/>
      <point x="419.5733034080491" y="412.0" type="curve" smooth="yes"/>
      <point x="246.57330340804913" y="412.0" type="line"/>
    </contour>
  </outline>
</glyph>
<glyph name="F" format="1">
  <advance width="595"/>
  <unicode hex="0046"/>
  <outline>
    <contour>
      <point x="85.0" y="0.0" type="line"/>
      <point x="245.0" y="0.0" type="line"/>
      <point x="391.66402755231525" y="690.0" type="line"/>
      <point x="231.66402755231528" y="690.0" type="line"/>
    </contour>
    <contour>
      <point x="211.50147073249548" y="247.0" type="line"/>
      <point x="567.5014707324955" y="247.0" type="line"/>
      <point x="597.2593893662986" y="387.0" type="line"/>
      <point x="241.25938936629856" y="387.0" type="line"/>
    </contour>
    <contour>
      <point x="275.9061089185122" y="550.0" type="line"/>
      <point x="671.9061089185121" y="550.0" type="line"/>
      <point x="701.6640275523152" y="690.0" type="line"/>
      <point x="305.66402755231525" y="690.0" type="line"/>
    </contour>
  </outline>
</glyph>
<glyph name="G" format="1">
  <advance width="703"/>
  <unicode hex="0047"/>
  <outline>
    <contour>
      <point x="118.33201377615764" y="345.0" type="curve" smooth="yes"/>
      <point x="70.9319005237427" y="122.0"/>
      <point x="201.44932125995973" y="-12.0"/>
      <point x="380.44932125995973" y="-12.0" type="curve" smooth="yes"/>
      <point x="476.44932125995973" y="-12.0"/>
      <point x="566.0385746717304" y="19.0"/>
      <point x="660.2170814952718" y="81.0" type="curve"/>
      <point x="520.6709276888333" y="149.0" type="line"/>
      <point x="483.48257926378295" y="134.0"/>
      <point x="445.20723989376285" y="128.0"/>
      <point x="417.20723989376285" y="128.0" type="curve" smooth="yes"/>
      <point x="313.20723989376285" y="128.0"/>
      <point x="251.99920826569456" y="207.0"/>
      <point x="281.3320137761576" y="345.0" type="curve" smooth="yes"/>
      <point x="310.6648192866207" y="483.0"/>
      <point x="406.75633516519224" y="554.0"/>
      <point x="508.75633516519224" y="554.0" type="curve" smooth="yes"/>
      <point x="565.7563351651922" y="554.0"/>
      <point x="612.5052039317918" y="534.0"/>
      <point x="653.4908373966811" y="501.0" type="curve"/>
      <point x="758.3985297838041" y="637.0" type="line"/>
      <point x="691.751018497285" y="681.0"/>
      <point x="623.2147062923556" y="702.0"/>
      <point x="536.2147062923556" y="702.0" type="curve" smooth="yes"/>
      <point x="353.2147062923556" y="702.0"/>
      <point x="165.73212702857256" y="568.0"/>
    </contour>
    <contour>
      <point x="411.92658385583553" y="249.0" type="line"/>
      <point x="627.9265838558355" y="249.0" type="line"/>
      <point x="656.1966065579485" y="382.0" type="line"/>
      <point x="440.1966065579485" y="382.0" type="line"/>
    </contour>
    <contour>
      <point x="503.87895931690156" y="70.0" type="line"/>
      <point x="660.2170814952718" y="81.0" type="line"/>
      <point x="724.1966065579485" y="382.0" type="line"/>
      <point x="570.1966065579485" y="382.0" type="line"/>
    </contour>
    <contour>
      <point x="523.6640275523152" y="690.0" type="move" name="top"/>
    </contour>
    <contour>
      <point x="377.0" y="0.0" type="move" name="bottom"/>
    </contour>
  </outline>
</glyph>
<glyph name="M" format="1">
  <advance width="854"/>
  <unicode hex="004D"/>
  <outline>
    <contour>
      <point x="85.0" y="0.0" type="line"/>
      <point x="238.0" y="0.0" type="line"/>
      <point x="384.66402755231525" y="690.0" type="line"/>
      <point x="231.66402755231528" y="690.0" type="line"/>
    </contour>
    <contour>
      <point x="303.66402755231525" y="690.0" type="line"/>
      <point x="403.9704751954731" y="141.0" type="line"/>
      <point x="464.9704751954731" y="141.0" type="line"/>
      <point x="506.2064481594574" y="335.0" type="line"/>
      <point x="450.66402755231525" y="690.0" type="line"/>
    </contour>
    <contour>
      <point x="448.9704751954731" y="141.0" type="line"/>
      <point x="509.9704751954731" y="141.0" type="line"/>
      <point x="843.6640275523152" y="690.0" type="line"/>
      <point x="696.6640275523152" y="690.0" type="line"/>
      <point x="490.2064481594574" y="335.0" type="line"/>
    </contour>
    <contour>
      <point x="616.0" y="0.0" type="line"/>
      <point x="769.0" y="0.0" type="line"/>
      <point x="915.6640275523152" y="690.0" type="line"/>
      <point x="762.6640275523152" y="690.0" type="line"/>
    </contour>
  </outline>
</glyph>
<glyph name="S" format="1">
  <advance width="638"/>
  <unicode hex="0053"/>
  <outline>
    <contour>
      <point x="50.72918556358164" y="74.0" type="line"/>
      <point x="124.25113123340044" y="20.0"/>
      <point x="212.44932125995973" y="-12.0"/>
      <point x="306.44932125995973" y="-12.0" type="curve"/>
      <point x="497.44932125995973" y="-12.0"/>
      <point x="611.0673077419519" y="85.0"/>
      <point x="634.4485295256543" y="195.0" type="curve"/>
      <point x="655.9167422543266" y="296.0"/>
      <point x="604.6459278179082" y="370.0"/>
      <point x="446.54909527142945" y="426.0" type="curve" smooth="yes"/>
      <point x="359.1383486832001" y="457.0"/>
      <point x="333.4522627249507" y="482.0"/>
      <point x="340.0415161367214" y="513.0" type="curve"/>
      <point x="345.993099863482" y="541.0"/>
      <point x="381.3070139052325" y="566.0"/>
      <point x="437.3070139052325" y="566.0" type="curve"/>
      <point x="506.3070139052325" y="566.0"/>
      <point x="567.5679867401419" y="539.0"/>
      <point x="614.2782808350111" y="500.0" type="curve"/>
      <point x="712.2729641671039" y="627.0" type="line"/>
      <point x="660.2003397572448" y="669.0"/>
      <point x="570.2147062923556" y="702.0"/>
      <point x="479.2147062923556" y="702.0" type="curve"/>
      <point x="308.2147062923556" y="702.0"/>
      <point x="199.6595026187135" y="610.0"/>
      <point x="176.27828083501106" y="500.0" type="curve"/>
      <point x="156.93563372303905" y="409.0"/>
      <point x="205.1436653511073" y="330.0"/>
      <point x="357.8781675825961" y="277.0" type="curve" smooth="yes"/>
      <point x="455.65124448581537" y="243.0"/>
      <point x="473.06199107404467" y="212.0"/>
      <point x="467.1104073472841" y="184.0" type="curve"/>
      <point x="460.3085973738434" y="152.0"/>
      <point x="417.7821267704228" y="126.0"/>
      <point x="352.7821267704228" y="126.0" type="curve"/>
      <point x="279.7821267704228" y="126.0"/>
      <point x="203.79649330553352" y="159.0"/>
      <point x="154.99920826569456" y="207.0" type="curve"/>
    </contour>
    <contour>
      <point x="476.66402755231525" y="690.0" type="move" name="top"/>
    </contour>
    <contour>
      <point x="309.0" y="0.0" type="move" name="bottom"/>
    </contour>
  </outline>
</glyph>
<glyph name="V" format="1">
  <advance width="656"/>
  <unicode hex="0056"/>
  <outline>
    <contour>
      <point x="146.66402755231528" y="690.0" type="line"/>
      <point x="261.0" y="0.0" type="line"/>
      <point x="343.0" y="0.0" type="line"/>
      <point x="380.15882362052344" y="156.0" type="line"/>
      <point x="320.66402755231525" y="690.0" type="line"/>
    </contour>
    <contour>
      <point x="346.15882362052344" y="156.0" type="line"/>
      <point x="321.0" y="0.0" type="line"/>
      <point x="395.0" y="0.0" type="line"/>
      <point x="802.6640275523152" y="690.0" type="line"/>
      <point x="632.6640275523152" y="690.0" type="line"/>
    </contour>
  </outline>
</glyph>
<glyph name="W" format="1">
  <advance width="956"/>
  <unicode hex="0057"/>
  <outline>
    <contour>
      <point x="146.66402755231528" y="690.0" type="line"/>
      <point x="215.0" y="0.0" type="line"/>
      <point x="297.0" y="0.0" type="line"/>
      <point x="336.4969457988937" y="167.0" type="line"/>
      <point x="317.66402755231525" y="690.0" type="line"/>
    </contour>
    <contour>
      <point x="302.4969457988937" y="167.0" type="line"/>
      <point x="275.0" y="0.0" type="line"/>
      <point x="349.0" y="0.0" type="line"/>
      <point x="629.4809957951721" y="548.0" type="line"/>
      <point x="659.6640275523152" y="690.0" type="line"/>
      <point x="560.6640275523152" y="690.0" type="line"/>
    </contour>
    <contour>
      <point x="559.4809957951721" y="548.0" type="line"/>
      <point x="606.0" y="0.0" type="line"/>
      <point x="688.0" y="0.0" type="line"/>
      <point x="727.4969457988936" y="167.0" type="line"/>
      <point x="692.6640275523152" y="690.0" type="line"/>
      <point x="589.6640275523152" y="690.0" type="line"/>
    </contour>
    <contour>
      <point x="693.4969457988936" y="167.0" type="line"/>
      <point x="666.0" y="0.0" type="line"/>
      <point x="740.0" y="0.0" type="line"/>
      <point x="1102.6640275523152" y="690.0" type="line"/>
      <point x="935.6640275523152" y="690.0" type="line"/>
    </contour>
    <contour>
      <point x="624.6640275523152" y="690.0" type="move" name="top"/>
    </contour>
  </outline>
</glyph>
<glyph name="bracketleft" format="1">
  <advance width="320"/>
  <unicode hex="005B"/>
  <outline>
    <contour>
      <point x="22.29581430734347" y="-295.0" type="line"/>
      <point x="162.29581430734348" y="-295.0" type="line"/>
      <point x="401.42194618611836" y="830.0" type="line"/>
      <point x="261.42194618611836" y="830.0" type="line"/>
    </contour>
    <contour>
      <point x="22.29581430734347" y="-295.0" type="line"/>
      <point x="307.29581430734345" y="-295.0" type="line"/>
      <point x="332.80260170774613" y="-175.0" type="line"/>
      <point x="47.80260170774613" y="-175.0" type="line"/>
    </contour>
    <contour>
      <point x="235.9151587857157" y="710.0" type="line"/>
      <point x="520.9151587857157" y="710.0" type="line"/>
      <point x="546.4219461861184" y="830.0" type="line"/>
      <point x="261.42194618611836" y="830.0" type="line"/>
    </contour>
  </outline>
</glyph>
<glyph name="asciicircum" format="1">
  <advance width="660"/>
  <unicode hex="005E"/>
  <outline>
    <contour>
      <point x="144.71402729416548" y="248.0" type="line"/>
      <point x="426.66402755231525" y="690.0" type="line"/>
      <point x="511.66402755231525" y="690.0" type="line"/>
      <point x="489.28280576861283" y="580.0" type="line"/>
      <point x="294.7140272941655" y="248.0" type="line"/>
    </contour>
    <contour>
      <point x="455.66402755231525" y="690.0" type="line"/>
      <point x="548.6640275523152" y="690.0" type="line"/>
      <point x="642.7140272941655" y="248.0" type="line"/>
      <point x="488.7140272941655" y="248.0" type="line"/>
      <point x="433.28280576861283" y="580.0" type="line"/>
    </contour>
  </outline>
</glyph>
<glyph name="underscore" format="1">
  <advance width="456"/>
  <unicode hex="005F"/>
  <outline>
    <contour>
      <point x="-25.719343962072678" y="-121.0" type="line"/>
      <point x="430.2806560379273" y="-121.0" type="line"/>
      <point x="456.0" y="0.0" type="line"/>
      <point x="0.0" y="0.0" type="line"/>
    </contour>
  </outline>
</glyph>
<glyph name="c" format="1">
  <advance width="497"/>
  <unicode hex="0063"/>
  <outline>
    <contour>
      <point x="91.56425354084558" y="252.0" type="curve" smooth="yes"/>
      <point x="57.34264711197201" y="91.0"/>
      <point x="139.44932125995973" y="-12.0"/>
      <point x="296.44932125995973" y="-12.0" type="curve" smooth="yes"/>
      <point x="367.44932125995973" y="-12.0"/>
      <point x="429.2753393700201" y="6.0"/>
      <point x="478.37669685010064" y="30.0" type="curve"/>
      <point x="449.6709276888333" y="149.0" type="line"/>
      <point x="421.0574661404429" y="132.0"/>
      <point x="380.50678740040263" y="120.0"/>
      <point x="346.50678740040263" y="120.0" type="curve" smooth="yes"/>
      <point x="270.50678740040263" y="120.0"/>
      <point x="225.4969457988937" y="167.0"/>
      <point x="244.6270363491957" y="257.0" type="curve" smooth="yes"/>
      <point x="266.52036220120794" y="360.0"/>
      <point x="331.510520599699" y="407.0"/>
      <point x="401.510520599699" y="407.0" type="curve" smooth="yes"/>
      <point x="438.510520599699" y="407.0"/>
      <point x="472.6832461149779" y="395.0"/>
      <point x="493.9212671879283" y="376.0" type="curve"/>
      <point x="573.215498026661" y="495.0" type="line"/>
      <point x="533.902381822531" y="519.0"/>
      <point x="486.14287361680186" y="537.0"/>
      <point x="425.14287361680186" y="537.0" type="curve" smooth="yes"/>
      <point x="265.14287361680186" y="537.0"/>
      <point x="128.54909527142942" y="426.0"/>
    </contour>
    <contour>
      <point x="412.5921948767616" y="525.0" type="move" name="top"/>
    </contour>
    <contour>
      <point x="289.0" y="0.0" type="move" name="bottom"/>
    </contour>
  </outline>
</glyph>
<glyph name="e" format="1">
  <advance width="566"/>
  <unicode hex="0065"/>
  <outline>
    <contour>
      <point x="91.56425354084558" y="252.0" type="curve" smooth="yes"/>
      <point x="57.98031679698208" y="94.0"/>
      <point x="135.44932125995973" y="-12.0"/>
      <point x="316.44932125995973" y="-12.0" type="curve" smooth="yes"/>
      <point x="387.44932125995973" y="-12.0"/>
      <point x="450.48789593169016" y="7.0"/>
      <point x="502.95158372676065" y="28.0" type="curve"/>
      <point x="486.8207014421532" y="145.0" type="line"/>
      <point x="447.9946833320928" y="127.0"/>
      <point x="399.6565611537226" y="116.0"/>
      <point x="360.6565611537226" y="116.0" type="curve" smooth="yes"/>
      <point x="274.6565611537226" y="116.0"/>
      <point x="225.7095023605637" y="168.0"/>
      <point x="245.6898191575458" y="262.0" type="curve" smooth="yes"/>
      <point x="269.49615406458827" y="374.0"/>
      <point x="320.42352965472924" y="416.0"/>
      <point x="382.42352965472924" y="416.0" type="curve" smooth="yes"/>
      <point x="441.42352965472924" y="416.0"/>
      <point x="466.70871062625827" y="375.0"/>
      <point x="444.815384774246" y="272.0" type="curve"/>
      <point x="484.5302038027169" y="313.0" type="line"/>
      <point x="213.53020380271693" y="313.0" type="line"/>
      <point x="193.33733044406483" y="218.0" type="line"/>
      <point x="572.3373304440648" y="218.0" type="line"/>
      <point x="576.888009184105" y="230.0"/>
      <point x="584.3516969791756" y="251.0"/>
      <point x="589.240497897586" y="274.0" type="curve" smooth="yes"/>
      <point x="623.8872174497997" y="437.0"/>
      <point x="554.1428736168019" y="537.0"/>
      <point x="411.14287361680186" y="537.0" type="curve" smooth="yes"/>
      <point x="258.14287361680186" y="537.0"/>
      <point x="128.1239821480894" y="424.0"/>
    </contour>
    <contour>
      <point x="408.5921948767616" y="525.0" type="move" name="top"/>
    </contour>
    <contour>
      <point x="297.0" y="0.0" type="move" name="bottom"/>
    </contour>
  </outline>
</glyph>
<glyph name="g" format="1">
  <advance width="610"/>
  <unicode hex="0067"/>
  <outline>
    <contour>
      <point x="97.30328070593617" y="279.0" type="curve" smooth="yes"/>
      <point x="64.56957020875276" y="125.0"/>
      <point x="130.37669685010067" y="30.0"/>
      <point x="246.37669685010067" y="30.0" type="curve"/>
      <point x="308.37669685010064" y="30.0"/>
      <point x="372.1157240151913" y="57.0"/>
      <point x="424.0188914687125" y="113.0" type="curve"/>
      <point x="443.5740951423545" y="205.0" type="line"/>
      <point x="406.6225114155939" y="177.0"/>
      <point x="359.22160642887354" y="161.0"/>
      <point x="319.22160642887354" y="161.0" type="curve" smooth="yes"/>
      <point x="261.22160642887354" y="161.0"/>
      <point x="231.3615385806845" y="204.0"/>
      <point x="249.00373319929633" y="287.0" type="curve" smooth="yes"/>
      <point x="266.94524215985166" y="371.4081632653061"/>
      <point x="324.0611993397393" y="419.0"/>
      <point x="388.0611993397393" y="419.0" type="curve" smooth="yes"/>
      <point x="441.0611993397393" y="419.0"/>
      <point x="465.98404999627843" y="381.0"/>
      <point x="448.3418553776666" y="298.0" type="curve"/>
      <point x="501.4046381860167" y="303.0" type="line"/>
      <point x="533.28812243652" y="453.0"/>
      <point x="477.14287361680186" y="537.0"/>
      <point x="369.14287361680186" y="537.0" type="curve" smooth="yes"/>
      <point x="247.14287361680186" y="537.0"/>
      <point x="132.8586211646293" y="446.27472527472526"/>
    </contour>
    <contour>
      <point x="36.62861981780652" y="-157.0" type="line"/>
      <point x="81.16493202273605" y="-178.0"/>
      <point x="138.12635735100565" y="-197.0"/>
      <point x="216.12635735100565" y="-197.0" type="curve" smooth="yes"/>
      <point x="375.12635735100565" y="-197.0"/>
      <point x="514.3820135180079" y="-97.0"/>
      <point x="550.7291855635816" y="74.0" type="curve" smooth="yes"/>
      <point x="620.0226246680088" y="400.0" type="line"/>
      <point x="625.9742083947694" y="428.0"/>
      <point x="632.0127830664999" y="447.0"/>
      <point x="643.1769233549305" y="476.0" type="curve" smooth="yes"/>
      <point x="661.5921948767616" y="525.0" type="line"/>
      <point x="515.5921948767616" y="525.0" type="line"/>
      <point x="477.3993215181095" y="430.0" type="line"/>
      <point x="468.5347287363187" y="393.0" type="line"/>
      <point x="400.3040724402416" y="72.0" type="line" smooth="yes"/>
      <point x="379.68608595824946" y="-25.0"/>
      <point x="319.5461538064385" y="-68.0"/>
      <point x="232.5461538064385" y="-68.0" type="curve" smooth="yes"/>
      <point x="182.5461538064385" y="-68.0"/>
      <point x="134.73450223148882" y="-53.0"/>
      <point x="98.98563346488928" y="-33.0" type="curve"/>
    </contour>
    <contour>
      <point x="395.4666292600614" y="515.0" type="move" name="top"/>
    </contour>
  </outline>
</glyph>
<glyph name="h" format="1">
  <advance width="634"/>
  <unicode hex="0068"/>
  <outline>
    <contour>
      <point x="75.0" y="0.0" type="line"/>
      <point x="225.0" y="0.0" type="line"/>
      <point x="381.22907282746627" y="735.0" type="line"/>
      <point x="226.9779415940658" y="715.0" type="line"/>
    </contour>
    <contour>
      <point x="283.5445703378276" y="346.0" type="line"/>
      <point x="321.98404999627843" y="381.0"/>
      <point x="369.8100681063388" y="399.0"/>
      <point x="409.8100681063388" y="399.0" type="curve"/>
      <point x="461.8100681063388" y="399.0"/>
      <point x="492.43337125623816" y="369.0"/>
      <point x="478.4046381860167" y="303.0" type="curve" smooth="yes"/>
      <point x="414.0" y="0.0" type="line"/>
      <point x="564.0" y="0.0" type="line"/>
      <point x="633.2934391044272" y="326.0" type="line" smooth="yes"/>
      <point x="663.2639142999003" y="467.0"/>
      <point x="587.1428736168019" y="537.0"/>
      <point x="494.14287361680186" y="537.0" type="curve"/>
      <point x="422.14287361680186" y="537.0"/>
      <point x="356.853167711671" y="498.0"/>
      <point x="303.95000025814977" y="442.0" type="curve"/>
    </contour>
    <contour>
      <point x="303.0407244024159" y="720.0" type="move" name="top"/>
    </contour>
  </outline>
</glyph>
<glyph name="i" format="1">
  <advance width="300"/>
  <unicode hex="0069"/>
  <outline>
    <contour>
      <point x="201.68823568893495" y="676.0" type="curve" smooth="yes"/>
      <point x="191.06040760543385" y="626.0"/>
      <point x="220.34558857696294" y="585.0"/>
      <point x="274.34558857696294" y="585.0" type="curve" smooth="yes"/>
      <point x="328.34558857696294" y="585.0"/>
      <point x="375.06040760543385" y="626.0"/>
      <point x="385.6882356889349" y="676.0" type="curve" smooth="yes"/>
      <point x="396.31606377243605" y="726.0"/>
      <point x="367.03088280090697" y="767.0"/>
      <point x="313.03088280090697" y="767.0" type="curve" smooth="yes"/>
      <point x="259.03088280090697" y="767.0"/>
      <point x="212.31606377243605" y="726.0"/>
    </contour>
    <contour>
      <point x="75.0" y="0.0" type="line"/>
      <point x="225.0" y="0.0" type="line"/>
      <point x="336.5921948767616" y="525.0" type="line"/>
      <point x="186.5921948767616" y="525.0" type="line"/>
    </contour>
    <contour>
      <point x="150.0" y="0.0" type="move" name="bottom"/>
    </contour>
  </outline>
</glyph>
<glyph name="j" format="1">
  <advance width="300"/>
  <unicode hex="006A"/>
  <outline>
    <contour>
      <point x="-99.472737662274" y="-181.0" type="line"/>
      <point x="-74.3857467173042" y="-190.0"/>
      <point x="-36.873642648994355" y="-197.0"/>
      <point x="-5.873642648994355" y="-197.0" type="curve"/>
      <point x="109.12635735100565" y="-197.0"/>
      <point x="197.58020354456715" y="-129.0"/>
      <point x="226.7004524933602" y="8.0" type="curve" smooth="yes"/>
      <point x="336.5921948767616" y="525.0" type="line"/>
      <point x="186.5921948767616" y="525.0" type="line"/>
      <point x="78.40090498672035" y="16.0" type="line" smooth="yes"/>
      <point x="65.22239816317898" y="-46.0"/>
      <point x="34.97126692977854" y="-66.0"/>
      <point x="-8.02873307022146" y="-66.0" type="curve"/>
      <point x="-24.02873307022146" y="-66.0"/>
      <point x="-37.391063385211396" y="-63.0"/>
      <point x="-57.11572401519126" y="-57.0" type="curve"/>
    </contour>
    <contour>
      <point x="201.68823568893495" y="676.0" type="curve" smooth="yes"/>
      <point x="191.06040760543385" y="626.0"/>
      <point x="220.34558857696294" y="585.0"/>
      <point x="274.34558857696294" y="585.0" type="curve" smooth="yes"/>
      <point x="328.34558857696294" y="585.0"/>
      <point x="375.06040760543385" y="626.0"/>
      <point x="385.6882356889349" y="676.0" type="curve" smooth="yes"/>
      <point x="396.31606377243605" y="726.0"/>
      <point x="367.03088280090697" y="767.0"/>
      <point x="313.03088280090697" y="767.0" type="curve" smooth="yes"/>
      <point x="259.03088280090697" y="767.0"/>
      <point x="212.31606377243605" y="726.0"/>
    </contour>
  </outline>
</glyph>
<glyph name="l" format="1">
  <advance width="300"/>
  <unicode hex="006C"/>
  <outline>
    <contour>
      <point x="75.0" y="0.0" type="line"/>
      <point x="225.0" y="0.0" type="line"/>
      <point x="381.22907282746627" y="735.0" type="line"/>
      <point x="226.9779415940658" y="715.0" type="line"/>
    </contour>
    <contour>
      <point x="303.0407244024159" y="720.0" type="move" name="top"/>
    </contour>
  </outline>
</glyph>
<glyph name="m" format="1">
  <advance width="935"/>
  <unicode hex="006D"/>
  <outline>
    <contour>
      <point x="171.5921948767616" y="525.0" type="line"/>
      <point x="169.17692335493052" y="476.0" type="line" smooth="yes"/>
      <point x="168.01278306649988" y="447.0"/>
      <point x="165.97420839476948" y="428.0"/>
      <point x="160.02262466800886" y="400.0" type="curve" smooth="yes"/>
      <point x="75.0" y="0.0" type="line"/>
      <point x="225.0" y="0.0" type="line"/>
      <point x="308.5347287363187" y="393.0" type="line"/>
      <point x="315.3993215181095" y="430.0" type="line"/>
      <point x="317.5921948767616" y="525.0" type="line"/>
    </contour>
    <contour>
      <point x="282.90690065281757" y="343.0" type="line"/>
      <point x="318.7714934346084" y="380.0"/>
      <point x="365.8100681063388" y="399.0"/>
      <point x="402.8100681063388" y="399.0" type="curve" smooth="yes"/>
      <point x="448.8100681063388" y="399.0"/>
      <point x="473.8584843795782" y="371.0"/>
      <point x="460.4674209943668" y="308.0" type="curve" smooth="yes"/>
      <point x="395.0" y="0.0" type="line"/>
      <point x="545.0" y="0.0" type="line"/>
      <point x="615.3562219127773" y="331.0" type="line" smooth="yes"/>
      <point x="644.6890274232404" y="469.0"/>
      <point x="580.1428736168019" y="537.0"/>
      <point x="489.14287361680186" y="537.0" type="curve" smooth="yes"/>
      <point x="421.14287361680186" y="537.0"/>
      <point x="354.853167711671" y="498.0"/>
      <point x="303.95000025814977" y="442.0" type="curve"/>
    </contour>
    <contour>
      <point x="609.5248871348098" y="440.0" type="curve"/>
      <point x="602.9069006528176" y="343.0" type="line"/>
      <point x="638.7714934346084" y="380.0"/>
      <point x="685.8100681063388" y="399.0"/>
      <point x="722.8100681063388" y="399.0" type="curve" smooth="yes"/>
      <point x="768.8100681063388" y="399.0"/>
      <point x="793.8584843795782" y="371.0"/>
      <point x="780.4674209943669" y="308.0" type="curve" smooth="yes"/>
      <point x="715.0" y="0.0" type="line"/>
      <point x="865.0" y="0.0" type="line"/>
      <point x="935.3562219127773" y="331.0" type="line" smooth="yes"/>
      <point x="964.6890274232404" y="469.0"/>
      <point x="898.1428736168019" y="537.0"/>
      <point x="804.1428736168019" y="537.0" type="curve"/>
      <point x="731.1428736168019" y="537.0"/>
      <point x="660.428054588331" y="496.0"/>
    </contour>
  </outline>
</glyph>
<glyph name="n" format="1">
  <advance width="634"/>
  <unicode hex="006E"/>
  <outline>
    <contour>
      <point x="171.5921948767616" y="525.0" type="line"/>
      <point x="169.17692335493052" y="476.0" type="line" smooth="yes"/>
      <point x="168.01278306649988" y="447.0"/>
      <point x="165.97420839476948" y="428.0"/>
      <point x="160.02262466800886" y="400.0" type="curve" smooth="yes"/>
      <point x="75.0" y="0.0" type="line"/>
      <point x="225.0" y="0.0" type="line"/>
      <point x="308.5347287363187" y="393.0" type="line"/>
      <point x="315.3993215181095" y="430.0" type="line"/>
      <point x="317.5921948767616" y="525.0" type="line"/>
    </contour>
    <contour>
      <point x="282.90690065281757" y="343.0" type="line"/>
      <point x="321.7714934346084" y="380.0"/>
      <point x="369.8100681063388" y="399.0"/>
      <point x="409.8100681063388" y="399.0" type="curve"/>
      <point x="461.8100681063388" y="399.0"/>
      <point x="492.43337125623816" y="369.0"/>
      <point x="478.4046381860167" y="303.0" type="curve" smooth="yes"/>
      <point x="414.0" y="0.0" type="line"/>
      <point x="564.0" y="0.0" type="line"/>
      <point x="633.2934391044272" y="326.0" type="line" smooth="yes"/>
      <point x="663.2639142999003" y="467.0"/>
      <point x="587.1428736168019" y="537.0"/>
      <point x="494.14287361680186" y="537.0" type="curve"/>
      <point x="422.14287361680186" y="537.0"/>
      <point x="356.853167711671" y="498.0"/>
      <point x="303.95000025814977" y="442.0" type="curve"/>
    </contour>
    <contour>
      <point x="436.5921948767616" y="525.0" type="move" name="top"/>
    </contour>
  </outline>
</glyph>
<glyph name="p" format="1">
  <advance width="610"/>
  <unicode hex="0070"/>
  <outline>
    <contour>
      <point x="171.5921948767616" y="525.0" type="line"/>
      <point x="169.17692335493052" y="476.0" type="line" smooth="yes"/>
      <point x="168.01278306649988" y="447.0"/>
      <point x="165.97420839476948" y="428.0"/>
      <point x="160.02262466800886" y="400.0" type="curve" smooth="yes"/>
      <point x="32.48868766599558" y="-200.0" type="line"/>
      <point x="186.73981889939603" y="-180.0" type="line"/>
      <point x="308.5347287363187" y="393.0" type="line"/>
      <point x="315.3993215181095" y="430.0" type="line"/>
      <point x="317.5921948767616" y="525.0" type="line"/>
    </contour>
    <contour>
      <point x="220.1875566907449" y="222.0" type="line"/>
      <point x="190.01163979759073" y="80.03347280334728"/>
      <point x="244.44932125995973" y="-12.0"/>
      <point x="348.44932125995973" y="-12.0" type="curve" smooth="yes"/>
      <point x="474.2704221773909" y="-12.0"/>
      <point x="589.8547511802818" y="84.0"/>
      <point x="627.4772625958758" y="261.0" type="curve" smooth="yes"/>
      <point x="663.3993215181096" y="430.0"/>
      <point x="594.7975127920596" y="537.0"/>
      <point x="489.14287361680186" y="537.0" type="curve" smooth="yes"/>
      <point x="419.14287361680186" y="537.0"/>
      <point x="355.64728535872985" y="498.0"/>
      <point x="303.95000025814977" y="442.0" type="curve"/>
      <point x="282.90690065281757" y="343.0" type="line"/>
      <point x="321.7714934346084" y="380.0"/>
      <point x="370.23518122967886" y="401.0"/>
      <point x="410.23518122967886" y="401.0" type="curve" smooth="yes"/>
      <point x="468.16071314457247" y="401.0"/>
      <point x="497.03246626951784" y="353.0"/>
      <point x="475.7768101025156" y="253.0" type="curve" smooth="yes"/>
      <point x="455.79649330553355" y="159.0"/>
      <point x="397.35506961109644" y="106.0"/>
      <point x="333.53099553702236" y="106.0" type="curve" smooth="yes"/>
      <point x="280.53099553702236" y="106.0"/>
      <point x="255.6081448804832" y="144.0"/>
      <point x="273.25033949909505" y="227.0" type="curve"/>
    </contour>
  </outline>
</glyph>
<glyph name="r" format="1">
  <advance width="409"/>
  <unicode hex="0072"/>
  <outline>
    <contour>
      <point x="171.5921948767616" y="525.0" type="line"/>
      <point x="169.17692335493052" y="476.0" type="line" smooth="yes"/>
      <point x="168.01278306649988" y="447.0"/>
      <point x="165.97420839476948" y="428.0"/>
      <point x="160.02262466800886" y="400.0" type="curve" smooth="yes"/>
      <point x="75.0" y="0.0" type="line"/>
      <point x="225.0" y="0.0" type="line"/>
      <point x="305.3463803112684" y="378.0" type="line"/>
      <point x="314.3365387097594" y="425.0" type="line"/>
      <point x="317.5921948767616" y="525.0" type="line"/>
    </contour>
    <contour>
      <point x="279.71855222776725" y="328.0" type="line"/>
      <point x="341.49615406458827" y="374.0"/>
      <point x="390.6845024896386" y="389.0"/>
      <point x="469.6845024896386" y="389.0" type="curve"/>
      <point x="501.14287361680186" y="537.0" type="line"/>
      <point x="429.14287361680186" y="537.0"/>
      <point x="356.00294146499095" y="494.0"/>
      <point x="299.69886902474934" y="422.0" type="curve"/>
    </contour>
    <contour>
      <point x="366.5921948767616" y="525.0" type="move" name="top"/>
    </contour>
  </outline>
</glyph>
<glyph name="t" format="1">
  <advance width="432"/>
  <unicode hex="0074"/>
  <outline>
    <contour>
      <point x="102.14819028470907" y="410.0" type="line"/>
      <point x="481.1481902847091" y="410.0" type="line"/>
      <point x="505.5921948767616" y="525.0" type="line"/>
      <point x="126.59219487676161" y="525.0" type="line"/>
    </contour>
    <contour>
      <point x="143.68529422394403" y="182.0" type="line" smooth="yes"/>
      <point x="116.05294120684115" y="52.0"/>
      <point x="172.44932125995973" y="-12.0"/>
      <point x="287.44932125995973" y="-12.0" type="curve"/>
      <point x="325.44932125995973" y="-12.0"/>
      <point x="368.1497737533199" y="-4.0"/>
      <point x="403.70045249336016" y="8.0" type="curve"/>
      <point x="415.120248948793" y="137.0" type="line"/>
      <point x="390.41979645543285" y="129.0"/>
      <point x="366.35701364708274" y="124.0"/>
      <point x="348.35701364708274" y="124.0" type="curve"/>
      <point x="304.35701364708274" y="124.0"/>
      <point x="285.60814488048317" y="144.0"/>
      <point x="297.72386889567446" y="201.0" type="curve" smooth="yes"/>
      <point x="395.4998872638846" y="661.0" type="line"/>
      <point x="241.24875603048417" y="641.0" type="line"/>
    </contour>
  </outline>
</glyph>
<glyph name="v" format="1">
  <advance width="530"/>
  <unicode hex="0076"/>
  <outline>
    <contour>
      <point x="111.59219487676161" y="525.0" type="line"/>
      <point x="204.0" y="0.0" type="line"/>
      <point x="297.0" y="0.0" type="line"/>
      <point x="319.3812217837024" y="110.0" type="line"/>
      <point x="275.5921948767616" y="525.0" type="line"/>
    </contour>
    <contour>
      <point x="263.3812217837024" y="110.0" type="line"/>
      <point x="241.0" y="0.0" type="line"/>
      <point x="326.0" y="0.0" type="line"/>
      <point x="641.5921948767616" y="525.0" type="line"/>
      <point x="481.5921948767616" y="525.0" type="line"/>
    </contour>
  </outline>
</glyph>
<glyph name="x" format="1">
  <advance width="534.0"/>
  <unicode hex="0078"/>
  <outline>
    <contour>
      <point x="5.0" y="0.0" type="line"/>
      <point x="169.0" y="0.0" type="line"/>
      <point x="315.1104073472841" y="184.0" type="line"/>
      <point x="389.20192322585564" y="255.0" type="line"/>
      <point x="630.5921948767616" y="525.0" type="line"/>
      <point x="466.5921948767616" y="525.0" type="line"/>
      <point x="336.732918762878" y="361.0" type="line"/>
      <point x="260.00373319929633" y="287.0" type="line"/>
    </contour>
    <contour>
      <point x="126.59219487676161" y="525.0" type="line"/>
      <point x="271.84943451237467" y="211.0" type="line"/>
      <point x="355.0" y="0.0" type="line"/>
      <point x="529.0" y="0.0" type="line"/>
      <point x="378.2934391044272" y="326.0" type="line"/>
      <point x="300.5921948767616" y="525.0" type="line"/>
    </contour>
  </outline>
</glyph>
<glyph name="y" format="1">
  <advance width="530"/>
  <unicode hex="0079"/>
  <outline>
    <contour>
      <point x="111.59219487676161" y="525.0" type="line"/>
      <point x="204.0" y="0.0" type="line"/>
      <point x="297.0" y="0.0" type="line"/>
      <point x="319.3812217837024" y="110.0" type="line"/>
      <point x="275.5921948767616" y="525.0" type="line"/>
    </contour>
    <contour>
      <point x="-19.472737662274007" y="-181.0" type="line"/>
      <point x="3.614253282695799" y="-190.0"/>
      <point x="36.126357351005645" y="-197.0"/>
      <point x="64.12635735100565" y="-197.0" type="curve"/>
      <point x="182.12635735100565" y="-197.0"/>
      <point x="248.79276010623715" y="-128.0"/>
      <point x="326.0" y="0.0" type="curve" smooth="yes"/>
      <point x="641.5921948767616" y="525.0" type="line"/>
      <point x="481.5921948767616" y="525.0" type="line"/>
      <point x="263.3812217837024" y="110.0" type="line"/>
      <point x="213.99015839849105" y="47.0" type="line"/>
      <point x="154.73450223148882" y="-53.0"/>
      <point x="121.33359724476847" y="-69.0"/>
      <point x="73.33359724476847" y="-69.0" type="curve"/>
      <point x="55.33359724476847" y="-69.0"/>
      <point x="38.97126692977854" y="-66.0"/>
      <point x="22.24660629979867" y="-60.0" type="curve"/>
    </contour>
    <contour>
      <point x="379.5921948767616" y="525.0" type="move" name="top"/>
    </contour>
  </outline>
</glyph>
<glyph name="z" format="1">
  <advance width="501"/>
  <unicode hex="007A"/>
  <outline>
    <contour>
      <point x="53.06730774195188" y="85.0" type="line"/>
      <point x="147.0" y="0.0" type="line"/>
      <point x="549.5248871348098" y="440.0" type="line"/>
      <point x="455.5921948767616" y="525.0" type="line"/>
    </contour>
    <contour>
      <point x="35.0" y="0.0" type="line"/>
      <point x="466.0" y="0.0" type="line"/>
      <point x="490.4440045920525" y="115.0" type="line"/>
      <point x="118.44400459205255" y="115.0" type="line"/>
      <point x="53.06730774195188" y="85.0" type="line"/>
    </contour>
    <contour>
      <point x="132.14819028470907" y="410.0" type="line"/>
      <point x="485.1481902847091" y="410.0" type="line"/>
      <point x="549.5248871348098" y="440.0" type="line"/>
      <point x="567.5921948767616" y="525.0" type="line"/>
      <point x="156.5921948767616" y="525.0" type="line"/>
    </contour>
    <contour>
      <point x="361.5921948767616" y="525.0" type="move" name="top"/>
    </contour>
  </outline>
</glyph>
<glyph name="bar" format="1">
  <advance width="310"/>
  <unicode hex="007C"/>
  <outline>
    <contour>
      <point x="39.30033924094524" y="-215.0" type="line"/>
      <point x="179.30033924094525" y="-215.0" type="line"/>
      <point x="378.0407244024159" y="720.0" type="line"/>
      <point x="238.04072440241592" y="720.0" type="line"/>
    </contour>
  </outline>
</glyph>
<glyph name="asciitilde" format="1">
  <advance width="660"/>
  <unicode hex="007E"/>
  <outline>
    <contour>
      <point x="167.64140288430642" y="290.0" type="curve"/>
      <point x="237.64140288430642" y="290.0" type="line"/>
      <point x="261.5445703378276" y="346.0"/>
      <point x="285.37058844788805" y="364.0"/>
      <point x="310.37058844788805" y="364.0" type="curve"/>
      <point x="363.37058844788805" y="364.0"/>
      <point x="392.57862007595634" y="285.0"/>
      <point x="477.57862007595634" y="285.0" type="curve" smooth="yes"/>
      <point x="553.5786200759563" y="285.0"/>
      <point x="620.6943440911475" y="342.0"/>
      <point x="653.9015839849104" y="470.0" type="curve"/>
      <point x="583.9015839849104" y="470.0" type="line"/>
      <point x="560.9984165313891" y="414.0"/>
      <point x="536.1723984213288" y="396.0"/>
      <point x="511.17239842132875" y="396.0" type="curve"/>
      <point x="457.17239842132875" y="396.0"/>
      <point x="427.9643667932605" y="475.0"/>
      <point x="343.9643667932605" y="475.0" type="curve" smooth="yes"/>
      <point x="267.9643667932605" y="475.0"/>
      <point x="199.84864277806923" y="418.0"/>
    </contour>
  </outline>
</glyph>
